<svg id="Ebene_1" data-name="Ebene 1" xmlns="http://www.w3.org/2000/svg" viewBox="0 0 129 129">
  <title>AndroidIconplant</title>
  <g>
    <g>
      <path d="M49.38,129a21.23,21.23,0,0,1-2.6-1.21,7.53,7.53,0,0,1-3.56-6.39c-.12-5.56-.08-11.12-.1-16.68,0-2.45.11-2.1-2.09-2.12-1.78,0-3.57,0-5.36,0A6.8,6.8,0,0,1,29,96.24c0-.31,0-.62,0-.93,0-16.86,0-33.72,0-50.57,0-1.09.34-1.32,1.33-1.32q34,0,68,0c.95,0,1.21.28,1.21,1.23q0,25.18,0,50.37c0,3.54-1.66,6.21-4.53,7.22a7.45,7.45,0,0,1-2.21.34c-2.06,0-4.12.06-6.18,0-.94,0-1.16.31-1.15,1.18,0,5.36,0,10.71,0,16.07a9.73,9.73,0,0,1-1.77,6.11,8.17,8.17,0,0,1-4,2.8c-.22.08-.43.18-.64.27H76.58c-.09-.06-.16-.15-.25-.17a8,8,0,0,1-6-7.91q0-8.13,0-16.27c0-.64-.08-1.28-.12-2H60.41c-2.28,0-2.28,0-2.29,2.34,0,5.12,0,10.23,0,15.35a8.24,8.24,0,0,1-3,6.92A18.71,18.71,0,0,1,51.85,129Z"/>
      <path d="M86.67,0a4,4,0,0,1-.15,1.5c-1.67,3-3.39,6-5.12,8.93-.42.71-.34,1.1.44,1.51a33.64,33.64,0,0,1,11.43,9.7A29.72,29.72,0,0,1,99,36.41c0,.21,0,.41,0,.62.29,2.56.34,2.31-2,2.31H30.69c-1.54,0-1.51,0-1.4-1.59a30,30,0,0,1,5.53-15.61,33,33,0,0,1,10.71-9.6c2.06-1.18,2.06-1.15.88-3.17-1.54-2.64-3.07-5.28-4.55-7.95A3.64,3.64,0,0,1,41.75,0h.83c2,3.41,3.94,6.81,5.89,10.23.34.6.71.44,1.19.24A38.87,38.87,0,0,1,65.44,7.68a39.48,39.48,0,0,1,13.41,2.84c.57.23.88.14,1.16-.38.76-1.34,1.53-2.68,2.32-4C83.56,4.08,84.81,2.05,86.06,0ZM81,21.24a3.22,3.22,0,0,0-3.4,3.23,3.37,3.37,0,0,0,3.23,3.34,3.46,3.46,0,0,0,3.37-3.11A3.38,3.38,0,0,0,81,21.24ZM47.52,27.81a3.37,3.37,0,0,0,3.36-3.21,3.29,3.29,0,0,0-3.17-3.37,3.4,3.4,0,0,0-3.46,3.35A3.58,3.58,0,0,0,47.52,27.81Z"/>
      <path d="M9.81,66.17c0-5.09,0-10.17,0-15.25a8.46,8.46,0,0,1,3.41-7.25,7.13,7.13,0,0,1,10.17,2,9.58,9.58,0,0,1,1.46,5.16V81.64A8.73,8.73,0,0,1,21.49,89,7,7,0,0,1,12,88a9.29,9.29,0,0,1-2.22-6.25C9.82,76.54,9.81,71.35,9.81,66.17Z"/>
      <path d="M103.58,66.15c0-5.26,0-10.51,0-15.76a7.9,7.9,0,0,1,3.23-6.59,7.05,7.05,0,0,1,10.32,1.89,8.52,8.52,0,0,1,1.45,4.76q0,15.7,0,31.41a8.57,8.57,0,0,1-3.3,7.1,7,7,0,0,1-9.55-1,9.12,9.12,0,0,1-2.18-6.15V66.15Z"/>
    </g>
  </g>
</svg>
