<svg id="Ebene_1" data-name="Ebene 1" xmlns="http://www.w3.org/2000/svg" viewBox="0 0 129 129">
  <title>IOSIconplant</title>
  <g>
    <g>
      <path d="M45.05,105.77c-1.1-.16-2.2-.29-3.29-.48A28.74,28.74,0,0,1,23.1,93.39a40.45,40.45,0,0,1-6.66-16.14,62.23,62.23,0,0,1-1-15.11,49.42,49.42,0,0,1,5-20.48A31.27,31.27,0,0,1,35.65,26.81a30.12,30.12,0,0,1,10.56-2.59c.2,0,.4-.08.6-.12h3.53c1,.12,2,.23,3,.38a27.87,27.87,0,0,1,14.38,6.41c5.33,4.52,8.57,10.35,10.54,17a58.28,58.28,0,0,1,2.2,18,57.8,57.8,0,0,1-2.07,14.91,36,36,0,0,1-9.51,16.6,29.53,29.53,0,0,1-16.43,8.07c-.88.14-1.77.26-2.66.38Zm-27.28-39A52.78,52.78,0,0,0,19,77a40,40,0,0,0,5.82,14.35,26.36,26.36,0,0,0,11.93,9.91,28.83,28.83,0,0,0,13.5,1.92,26.73,26.73,0,0,0,10.49-3A29.52,29.52,0,0,0,73.17,87a48.34,48.34,0,0,0,4.88-20.76,59.08,59.08,0,0,0-.84-11.65A41.49,41.49,0,0,0,72,39.94a25.43,25.43,0,0,0-15-11.88,30.7,30.7,0,0,0-11.72-1,27.89,27.89,0,0,0-11,3.34,29.3,29.3,0,0,0-12.46,14C18.87,51,17.77,57.87,17.77,66.8Z"/>
      <path d="M128.49,85.61c-.17,1.11-.28,2.24-.52,3.34a19.81,19.81,0,0,1-12.23,14.7,28.21,28.21,0,0,1-13.57,1.88,32.83,32.83,0,0,1-11.7-3.16c-.86-.42-1.66-1-2.55-1.46L89,98.53c1.11.59,2.17,1.21,3.28,1.73,4.63,2.19,9.47,3.64,14.63,3.22,8-.67,14.27-4.25,17.74-11.81a17.85,17.85,0,0,0,1.29-9.42c-.62-6.25-4.09-10.62-9.17-13.94a66.19,66.19,0,0,0-9.69-4.9A47.07,47.07,0,0,1,96.43,57.5,16,16,0,0,1,90.22,48a19.13,19.13,0,0,1,10-21.09,24.79,24.79,0,0,1,13.36-2.55,28.43,28.43,0,0,1,8.88,1.85c1.08.43,2.1,1,3.2,1.52l-.92,2c-1.33-.54-2.59-1.14-3.91-1.57a29.05,29.05,0,0,0-12-1.37c-8.62.9-14.36,6.54-15.92,13.71-1.28,5.86.21,10.89,5,14.75a40.43,40.43,0,0,0,7.8,4.7,128.3,128.3,0,0,1,11.81,6.14,26.37,26.37,0,0,1,7.62,6.68,17.57,17.57,0,0,1,3.24,9.12c0,.25.09.49.13.73Z"/>
      <path d="M.05,30.27a2.68,2.68,0,0,1,1.63-1.85,2,2,0,0,1,2.15.47,2.59,2.59,0,0,1,.68,2.56,2.22,2.22,0,0,1-2.19,1.81A2.18,2.18,0,0,1,.19,31.63c0-.12-.09-.23-.14-.35Z"/>
      <path d="M1.23,48.14H3.45v56.43H1.23Z"/>
    </g>
  </g>
</svg>
