<svg id="Ebene_1" data-name="Ebene 1" xmlns="http://www.w3.org/2000/svg" viewBox="0 0 128 128">
  <defs>
    <style>
      .cls-1 {
        fill: #000000;
      }
    </style>
  </defs>
  <title>WindowsIconplant</title>
  <g>
    <g>
      <path class="cls-1" d="M128,128l-68.13-9.59V68.3H128Z"/>
      <path class="cls-1" d="M128,59.71H59.78V58.53q0-23.72,0-47.43c0-1,.3-1.27,1.25-1.41,10.14-1.44,20.27-2.94,30.4-4.41L126.68.18,128,0Z"/>
      <path class="cls-1" d="M51.17,117.34l-6.85-.94L25,113.76,7.66,111.37c-2.28-.32-4.57-.64-6.85-.92-.61-.07-.81-.31-.81-.94q0-20.34,0-40.7c0-.14,0-.28.05-.49h51.1Z"/>
      <path class="cls-1" d="M51.18,11.15V59.7H.1V18.09Z"/>
    </g>
  </g>
</svg>
